# xmcd
#
# Track frame offsets:
#	150
#	18908
#	36863
#	52412
#	67105
#	84094
#	102852
#	120807
#	136356
#	151049
#	179438
#
# Disc length: 2400 seconds
#
# Revision: 1
# Processed by: cddbd v1.5.1PL2 Copyright (c) Steve Scherf et al.
# Submitted via: audiograbber 1.83.01
#
DISCID=86095e0b
DTITLE=Priddis - PR1486G
DYEAR=1900
DGENRE=
TTITLE0=Cagle, Chris - Breathe In Breathe Out
TTITLE1=Allen, Gary - The One
TTITLE2=Chesney, Kenny - The Good Stuff
TTITLE3=Emerson Drive - I Should Be Sleeping
TTITLE4=Trick Pony - Just What I Do
TTITLE5=Cagle, Chris - Breathe In Breathe Out (Vocal)
TTITLE6=Allen, Gary - The One (Vocal)
TTITLE7=Chesney, Kenny - The Good Stuff (Vocal)
TTITLE8=Emerson Drive - I Should Be Sleeping (Vocal)
TTITLE9=Trick Pony - Just What I Do (Vocal)
TTITLE10=x - Data Track
EXTD=
EXTT0=
EXTT1=
EXTT2=
EXTT3=
EXTT4=
EXTT5=
EXTT6=
EXTT7=
EXTT8=
EXTT9=
EXTT10=
PLAYORDER=
